<?xml version="1.0" encoding="UTF-8"?>
<svg width="1224px" height="1224px" viewBox="0 0 1224 1224" xmlns="http://www.w3.org/2000/svg" xmlns:xlink="http://www.w3.org/1999/xlink" version="1.1">
 <!-- Generated by Pixelmator Pro 2.1.5 -->
 <use id="Layer" xlink:href="#image" x="0px" y="0px" width="1224px" height="1224px"/>
 <g id="Clear-night">
  <path id="Star-copy" d="M403.494 130.954 L394.761 156.509 366.586 156.536 389.363 172.357 380.684 197.929 403.494 182.152 426.304 197.929 417.625 172.357 440.402 156.536 412.227 156.509 Z" fill="#ffffff" fill-opacity="1" stroke="none"/>
  <path id="Star-copy-1" d="M825.494 220.954 L812.279 259.624 769.645 259.665 804.111 283.605 790.978 322.301 825.494 298.427 860.01 322.301 846.877 283.605 881.343 259.665 838.709 259.624 Z" fill="#ffffff" fill-opacity="1" stroke="none"/>
  <path id="Star-copy-2" d="M372.494 904.954 L355.504 954.668 300.695 954.721 345.004 985.498 328.12 1035.245 372.494 1004.552 416.868 1035.245 399.984 985.498 444.293 954.721 389.484 954.668 Z" fill="#ffffff" fill-opacity="1" stroke="none"/>
  <path id="Star-copy-3" d="M252.494 432.851 L235.952 481.255 182.586 481.307 225.728 511.274 209.288 559.711 252.494 529.826 295.7 559.711 279.26 511.274 322.402 481.307 269.036 481.255 Z" fill="#ffffff" fill-opacity="1" stroke="none"/>
  <path id="Star-copy-4" d="M901.494 789.563 L891.253 819.53 858.215 819.561 884.924 838.113 874.746 868.099 901.494 849.599 928.242 868.099 918.064 838.113 944.773 819.561 911.735 819.53 Z" fill="#ffffff" fill-opacity="1" stroke="none"/>
 </g>
</svg>
