<?xml version="1.0" encoding="UTF-8"?>
<svg width="1224px" height="1224px" viewBox="0 0 1224 1224" xmlns="http://www.w3.org/2000/svg" xmlns:xlink="http://www.w3.org/1999/xlink" version="1.1">
 <!-- Generated by Pixelmator Pro 2.1.4 -->
 <use id="Layer" xlink:href="#image" x="0px" y="0px" width="1224px" height="1224px"/>
 <g id="Clear-night">
  <path id="Star-copy" d="M403.494 95.954 L386.504 145.668 331.695 145.721 376.004 176.498 359.12 226.245 403.494 195.552 447.868 226.245 430.984 176.498 475.293 145.721 420.484 145.668 Z" fill="#ffffff" fill-opacity="1" stroke="none"/>
  <path id="Star-copy-1" d="M825.494 204.954 L808.504 254.668 753.695 254.721 798.004 285.498 781.12 335.245 825.494 304.552 869.868 335.245 852.984 285.498 897.293 254.721 842.484 254.668 Z" fill="#ffffff" fill-opacity="1" stroke="none"/>
  <path id="Star-copy-2" d="M372.494 904.954 L355.504 954.668 300.695 954.721 345.004 985.498 328.12 1035.245 372.494 1004.552 416.868 1035.245 399.984 985.498 444.293 954.721 389.484 954.668 Z" fill="#ffffff" fill-opacity="1" stroke="none"/>
  <path id="Star-copy-3" d="M252.494 430.954 L235.504 480.668 180.695 480.721 225.004 511.498 208.12 561.245 252.494 530.552 296.868 561.245 279.984 511.498 324.293 480.721 269.484 480.668 Z" fill="#ffffff" fill-opacity="1" stroke="none"/>
  <path id="Star-copy-4" d="M901.494 760.954 L884.504 810.668 829.695 810.721 874.004 841.498 857.12 891.245 901.494 860.552 945.868 891.245 928.984 841.498 973.293 810.721 918.484 810.668 Z" fill="#ffffff" fill-opacity="1" stroke="none"/>
 </g>
</svg>
