<?xml version="1.0" encoding="UTF-8"?>
<svg width="1224px" height="1224px" viewBox="0 0 1224 1224" xmlns="http://www.w3.org/2000/svg" xmlns:xlink="http://www.w3.org/1999/xlink" version="1.1">
 <!-- Generated by Pixelmator Pro 2.1.4 -->
 <use id="Layer" xlink:href="#image" x="0px" y="0px" width="1224px" height="1224px"/>
 <g id="Wind">
  <path id="Wind-1" d="M942.371 612.039 C969.344 612.039 993.146 617.676 1013.779 628.951 1034.412 640.225 1050.607 655.774 1062.364 675.597 1074.121 695.421 1080 718.217 1080 743.988 1080 769.262 1074.525 791.749 1063.574 811.449 1052.624 831.148 1037.985 846.635 1019.658 857.909 1001.33 869.184 980.87 874.821 958.278 874.821 937.299 874.821 918.511 870.051 901.912 860.511 885.314 850.971 871.712 838.024 861.108 821.67 850.503 805.316 843.817 786.856 841.051 766.289 839.898 758.607 841.109 751.979 844.682 746.404 848.255 740.828 853.154 737.669 859.379 736.926 865.834 735.934 871.539 737.483 876.496 741.572 881.452 745.66 884.737 752.165 886.351 761.085 888.195 773.97 892.518 785.307 899.319 795.094 906.119 804.882 914.649 812.564 924.908 818.139 935.167 823.714 946.29 826.502 958.278 826.502 972.34 826.502 985.193 822.971 996.835 815.909 1008.477 808.847 1017.698 799.121 1024.499 786.732 1031.3 774.342 1034.7 760.094 1034.7 743.988 1034.7 719.208 1026.343 699.076 1009.629 683.589 992.916 668.102 970.496 660.358 942.371 660.358 916.09 660.358 889.118 663.641 861.453 670.208 833.789 676.774 805.261 684.27 775.867 692.695 746.474 701.12 715.929 708.615 684.23 715.182 652.531 721.748 619.392 725.032 584.812 725.032 549.079 725.032 514.903 721.996 482.282 715.925 449.661 709.854 418.136 700.996 387.705 689.35 380.558 686.872 375.544 682.659 372.663 676.712 369.781 670.765 369.262 664.571 371.107 658.128 372.951 651.685 376.582 646.854 381.999 643.632 387.417 640.411 393.929 640.287 401.537 643.261 429.893 654.659 458.998 663.022 488.852 668.349 518.706 673.677 550.693 676.341 584.812 676.341 619.392 676.341 652.013 673.119 682.674 666.677 713.335 660.234 742.958 652.739 771.545 644.19 800.131 635.641 828.487 628.145 856.612 621.703 884.737 615.26 913.323 612.039 942.371 612.039 Z M804.787 180 C822.538 180 838.56 184.336 852.853 193.009 867.147 201.682 878.443 213.761 886.742 229.248 895.041 244.735 899.191 262.638 899.191 282.957 899.191 326.816 878.904 360.578 838.33 384.242 797.755 407.906 739.085 419.738 662.317 419.738 635.72 419.738 364.088 415.353 277.819 412.569 259.203 411.968 249.152 403.783 249 393 248.83 380.935 254.789 371.299 274 371 367.698 369.54 636.485 371.047 662.317 371.047 725.022 371.047 772.685 363.118 805.306 347.259 837.926 331.4 854.237 309.966 854.237 282.957 854.237 265.859 849.395 252.479 839.713 242.815 830.03 233.151 818.388 228.319 804.787 228.319 791.185 228.319 780.293 232.903 772.109 242.072 763.925 251.24 758.565 263.629 756.029 279.24 755.107 286.178 752.398 292.063 747.903 296.895 743.407 301.727 737.471 303.772 730.094 303.028 722.255 302.533 716.665 299.249 713.322 293.179 709.98 287.108 708.885 280.355 710.037 272.922 713.265 246.903 723.235 224.912 739.949 206.947 756.663 188.982 778.275 180 804.787 180 Z M235.537 819.988 C285.333 837.086 335.474 845.635 385.961 845.635 407.17 845.635 426.938 844.705 445.266 842.847 463.593 840.988 481.69 839.192 499.557 837.457 517.423 835.723 536.384 834.856 556.441 834.856 577.189 834.856 595.113 839.44 610.213 848.608 625.313 857.776 636.955 870.228 645.139 885.963 653.323 901.697 657.415 919.476 657.415 939.3 657.415 959.371 653.093 977.273 644.448 993.008 635.802 1008.743 624.161 1021.009 609.522 1029.805 594.883 1038.602 578.688 1043 560.936 1043 541.11 1043 523.244 1037.115 507.337 1025.345 491.43 1013.575 479.788 998.893 472.411 981.3 469.645 975.105 468.896 968.849 470.164 962.53 471.431 956.211 475.178 951.317 481.402 947.848 486.704 944.875 492.352 944.441 498.346 946.547 504.34 948.654 509.181 953.424 512.87 960.857 516.789 970.273 523.071 978.265 531.716 984.831 540.361 991.398 550.101 994.681 560.936 994.681 575.23 994.681 587.39 989.663 597.419 979.628 607.447 969.592 612.461 956.149 612.461 939.3 612.461 922.45 607.332 908.883 597.073 898.6 586.814 888.317 573.27 883.175 556.441 883.175 537.307 883.175 518.922 884.104 501.286 885.963 483.65 887.821 465.495 889.679 446.822 891.538 428.148 893.396 407.862 894.325 385.961 894.325 357.605 894.325 329.538 891.786 301.758 886.706 273.979 881.626 247.295 874.75 221.705 866.077 214.328 863.847 209.256 859.759 206.49 853.812 203.723 847.865 203.262 841.67 205.107 835.227 206.951 828.785 210.524 824.015 215.826 820.917 221.129 817.82 227.699 817.51 235.537 819.988 Z" fill="#d5d5d5" fill-opacity="1" stroke="none"/>
 </g>
</svg>
