<?xml version="1.0" encoding="UTF-8"?>
<svg width="1224px" height="1224px" viewBox="0 0 1224 1224" xmlns="http://www.w3.org/2000/svg" xmlns:xlink="http://www.w3.org/1999/xlink" version="1.1">
 <use id="Layer" xlink:href="#image" x="0px" y="0px" width="1224px" height="1224px"/>
 <path id="Cloud" d="M853.671 905 C864.219 905 874.067 903.364 883.215 900.091 892.363 896.819 900.367 892.293 907.228 886.513 914.088 880.733 919.432 874.018 923.259 866.368 927.086 858.718 929 850.516 929 841.76 929 832.836 927.227 824.442 923.679 816.579 920.132 808.717 915.045 801.747 908.418 795.67 901.79 789.592 893.903 784.811 884.755 781.326 884.755 767.131 882.188 754.063 877.054 742.12 871.92 730.177 864.709 719.808 855.422 711.01 846.134 702.213 835.306 695.413 822.938 690.61 810.57 685.808 797.198 683.407 782.823 683.407 770.129 683.407 758.671 685.255 748.45 688.953 738.228 692.65 729.174 697.58 721.286 703.743 713.399 709.905 706.655 716.726 701.054 724.206 692.466 721.911 683.902 721.55 675.361 723.123 666.82 724.695 659.049 727.84 652.049 732.558 645.048 737.275 639.4 743.225 635.107 750.407 630.813 757.59 628.573 765.644 628.386 774.568 617.838 776.099 608.714 779.753 601.013 785.533 593.312 791.313 587.385 798.581 583.231 807.336 579.077 816.091 577 825.653 577 836.023 577 845.373 579.1 854.213 583.301 862.543 587.501 870.873 593.405 878.204 601.013 884.536 608.62 890.869 617.511 895.863 627.686 899.518 637.86 903.173 648.921 905 660.87 905 Z" fill="#929292" fill-opacity="1" stroke="none"/>
</svg>
