<?xml version="1.0" encoding="UTF-8"?>
<svg width="1224px" height="1224px" viewBox="0 0 1224 1224" xmlns="http://www.w3.org/2000/svg" xmlns:xlink="http://www.w3.org/1999/xlink" version="1.1">
 <!-- Generated by Pixelmator Pro 2.1.4 -->
 <use id="Layer" xlink:href="#image" x="0px" y="0px" width="1224px" height="1224px"/>
 <g id="Rain">
  <path id="Path-copy" d="M752.386 130.014 C752.386 130.014 753.543 146.397 740.84 181.969 728.845 215.56 698.184 244.967 700 281 701.725 315.213 719.747 340.472 758.159 340.719 793.633 340.948 812.922 307.084 813 280.105 813.088 249.448 790.486 228.685 775.477 199.287 752.848 154.964 752.494 128.729 752.386 130.014 Z" fill="#4f95cd" fill-opacity="1" stroke="none"/>
  <path id="Path-copy-1" d="M402.386 235.014 C402.386 235.014 403.543 251.397 390.84 286.969 378.845 320.56 348.184 349.967 350 386 351.725 420.213 369.747 445.472 408.159 445.719 443.633 445.948 462.922 412.084 463 385.105 463.088 354.448 440.486 333.685 425.477 304.287 402.848 259.964 402.494 233.729 402.386 235.014 Z" fill="#4f95cd" fill-opacity="1" stroke="none"/>
  <path id="Path-copy-2" d="M844.386 455.014 C844.386 455.014 845.543 471.397 832.84 506.969 820.845 540.56 790.184 569.967 792 606 793.725 640.213 811.747 665.472 850.159 665.719 885.633 665.948 904.922 632.084 905 605.105 905.088 574.448 882.486 553.685 867.477 524.287 844.848 479.964 844.494 453.729 844.386 455.014 Z" fill="#4f95cd" fill-opacity="1" stroke="none"/>
  <path id="Path-copy-3" d="M481.386 684.014 C481.386 684.014 482.543 700.397 469.84 735.969 457.845 769.56 427.184 798.967 429 835 430.725 869.213 448.747 894.472 487.159 894.719 522.633 894.948 541.922 861.084 542 834.105 542.088 803.448 519.486 782.685 504.477 753.287 481.848 708.964 481.494 682.729 481.386 684.014 Z" fill="#4f95cd" fill-opacity="1" stroke="none"/>
  <path id="Path-copy-4" d="M939.386 729.014 C939.386 729.014 940.543 745.397 927.84 780.969 915.845 814.56 885.184 843.967 887 880 888.725 914.213 906.747 939.472 945.159 939.719 980.633 939.948 999.922 906.084 1000 879.105 1000.088 848.448 977.486 827.685 962.477 798.287 939.848 753.964 939.494 727.729 939.386 729.014 Z" fill="#4f95cd" fill-opacity="1" stroke="none"/>
  <path id="Path-copy-5" d="M204.386 561.014 C204.386 561.014 205.543 577.397 192.84 612.969 180.845 646.56 150.184 675.967 152 712 153.725 746.213 171.747 771.472 210.159 771.719 245.633 771.948 264.922 738.084 265 711.105 265.088 680.448 242.486 659.685 227.477 630.287 204.848 585.964 204.494 559.729 204.386 561.014 Z" fill="#4f95cd" fill-opacity="1" stroke="none"/>
 </g>
</svg>
