<?xml version="1.0" encoding="UTF-8"?>
<svg width="1224px" height="1224px" viewBox="0 0 1224 1224" xmlns="http://www.w3.org/2000/svg" xmlns:xlink="http://www.w3.org/1999/xlink" version="1.1">
 <!-- Generated by Pixelmator Pro 2.1.5 -->
   
    <path id="Path" d="M983 584 L983 719 983 721"/>
   
   <use id="Path-1" xlink:href="#Path" fill="#ffffff" fill-opacity="1" stroke="none"/>
   
   <use id="Path-2" stroke="#ffffff" stroke-opacity="1" stroke-linecap="round" fill="none" stroke-width="4" xlink:href="#stroke-path"/>
   
    <path id="Path-copy" d="M934.563 604.063 L1030.023 699.523 1031.437 700.937"/>
   
   <use id="Path-copy-1" xlink:href="#Path-copy" fill="#ffffff" fill-opacity="1" stroke="none"/>
   
   <use id="Path-copy-2" stroke="#ffffff" stroke-opacity="1" stroke-linecap="round" fill="none" stroke-width="4" xlink:href="#stroke-path-1"/>
   
    <path id="Path-copy-1" d="M914.5 652.5 L1049.5 652.5 1051.5 652.5"/>
   
   <use id="Path-copy-1-1" xlink:href="#Path-copy-1" fill="#ffffff" fill-opacity="1" stroke="none"/>
   
   <use id="Path-copy-1-2" stroke="#ffffff" stroke-opacity="1" stroke-linecap="round" fill="none" stroke-width="4" xlink:href="#stroke-path-2"/>
   
    <path id="Path-copy-2" d="M934.563 700.937 L1030.023 605.477 1031.437 604.063"/>
   
   <use id="Path-copy-2-1" xlink:href="#Path-copy-2" fill="#ffffff" fill-opacity="1" stroke="none"/>
   
   <use id="Path-copy-2-2" stroke="#ffffff" stroke-opacity="1" stroke-linecap="round" fill="none" stroke-width="4" xlink:href="#stroke-path-3"/>
   
    <path id="Path-3" d="M397 297 L397 432 397 434"/>
   
   <use id="Path-4" xlink:href="#Path-3" fill="#ffffff" fill-opacity="1" stroke="none"/>
   
   <use id="Path-5" stroke="#ffffff" stroke-opacity="1" stroke-linecap="round" fill="none" stroke-width="4" xlink:href="#stroke-path-4"/>
   
    <path id="Path-copy-3" d="M348.563 317.063 L444.023 412.523 445.437 413.937"/>
   
   <use id="Path-copy-4" xlink:href="#Path-copy-3" fill="#ffffff" fill-opacity="1" stroke="none"/>
   
   <use id="Path-copy-5" stroke="#ffffff" stroke-opacity="1" stroke-linecap="round" fill="none" stroke-width="4" xlink:href="#stroke-path-5"/>
   
    <path id="Path-copy-1-3" d="M328.5 365.5 L463.5 365.5 465.5 365.5"/>
   
   <use id="Path-copy-1-4" xlink:href="#Path-copy-1-3" fill="#ffffff" fill-opacity="1" stroke="none"/>
   
   <use id="Path-copy-1-5" stroke="#ffffff" stroke-opacity="1" stroke-linecap="round" fill="none" stroke-width="4" xlink:href="#stroke-path-6"/>
   
    <path id="Path-copy-2-3" d="M348.563 413.937 L444.023 318.477 445.437 317.063"/>
   
   <use id="Path-copy-2-4" xlink:href="#Path-copy-2-3" fill="#ffffff" fill-opacity="1" stroke="none"/>
   
   <use id="Path-copy-2-5" stroke="#ffffff" stroke-opacity="1" stroke-linecap="round" fill="none" stroke-width="4" xlink:href="#stroke-path-7"/>
   
    <path id="Path-6" d="M233 471 L233 606 233 608"/>
   
   <use id="Path-7" xlink:href="#Path-6" fill="#ffffff" fill-opacity="1" stroke="none"/>
   <use id="Path-8" stroke="#ffffff" stroke-opacity="1" stroke-linecap="round" fill="none" stroke-width="4" xlink:href="#stroke-path-8"/>
   
    <path id="Path-copy-6" d="M184.563 491.063 L280.023 586.523 281.437 587.937"/>
   
   <use id="Path-copy-7" xlink:href="#Path-copy-6" fill="#ffffff" fill-opacity="1" stroke="none"/>
   <use id="Path-copy-8" stroke="#ffffff" stroke-opacity="1" stroke-linecap="round" fill="none" stroke-width="4" xlink:href="#stroke-path-9"/>
   
    <path id="Path-copy-1-6" d="M164.5 539.5 L299.5 539.5 301.5 539.5"/>
   
   <use id="Path-copy-1-7" xlink:href="#Path-copy-1-6" fill="#ffffff" fill-opacity="1" stroke="none"/>
   <use id="Path-copy-1-8" stroke="#ffffff" stroke-opacity="1" stroke-linecap="round" fill="none" stroke-width="4" xlink:href="#stroke-path-10"/>
   
    <path id="Path-copy-2-6" d="M184.563 587.937 L280.023 492.477 281.437 491.063"/>
   
   <use id="Path-copy-2-7" xlink:href="#Path-copy-2-6" fill="#ffffff" fill-opacity="1" stroke="none"/>

   <use id="Path-copy-2-8" stroke="#ffffff" stroke-opacity="1" stroke-linecap="round" fill="none" stroke-width="4" xlink:href="#stroke-path-11"/>
   
    <path id="Path-9" d="M807 263 L807 398 807 400"/>
   
   <use id="Path-10" xlink:href="#Path-9" fill="#ffffff" fill-opacity="1" stroke="none"/>
   <use id="Path-11" stroke="#ffffff" stroke-opacity="1" stroke-linecap="round" fill="none" stroke-width="4" xlink:href="#stroke-path-12"/>
   
    <path id="Path-copy-9" d="M758.563 283.063 L854.023 378.523 855.437 379.937"/>
   
   <use id="Path-copy-10" xlink:href="#Path-copy-9" fill="#ffffff" fill-opacity="1" stroke="none"/>
   <use id="Path-copy-11" stroke="#ffffff" stroke-opacity="1" stroke-linecap="round" fill="none" stroke-width="4" xlink:href="#stroke-path-13"/>
   
    <path id="Path-copy-1-9" d="M738.5 331.5 L873.5 331.5 875.5 331.5"/>
   
   <use id="Path-copy-1-10" xlink:href="#Path-copy-1-9" fill="#ffffff" fill-opacity="1" stroke="none"/>
   <use id="Path-copy-1-11" stroke="#ffffff" stroke-opacity="1" stroke-linecap="round" fill="none" stroke-width="4" xlink:href="#stroke-path-14"/>
   
    <path id="Path-copy-2-9" d="M758.563 379.937 L854.023 284.477 855.437 283.063"/>
   
   <use id="Path-copy-2-10" xlink:href="#Path-copy-2-9" fill="#ffffff" fill-opacity="1" stroke="none"/>
   <use id="Path-copy-2-11" stroke="#ffffff" stroke-opacity="1" stroke-linecap="round" fill="none" stroke-width="4" xlink:href="#stroke-path-15"/>
   
    <path id="Path-12" d="M329 752 L329 887 329 889"/>
   
   <use id="Path-13" xlink:href="#Path-12" fill="#ffffff" fill-opacity="1" stroke="none"/>
   <use id="Path-14" stroke="#ffffff" stroke-opacity="1" stroke-linecap="round" fill="none" stroke-width="4" xlink:href="#stroke-path-16"/>
   
    <path id="Path-copy-12" d="M280.563 772.063 L376.023 867.523 377.437 868.937"/>
   
   <use id="Path-copy-13" xlink:href="#Path-copy-12" fill="#ffffff" fill-opacity="1" stroke="none"/>

   <use id="Path-copy-14" stroke="#ffffff" stroke-opacity="1" stroke-linecap="round" fill="none" stroke-width="4" xlink:href="#stroke-path-17"/>
   
    <path id="Path-copy-1-12" d="M260.5 820.5 L395.5 820.5 397.5 820.5"/>
   
   <use id="Path-copy-1-13" xlink:href="#Path-copy-1-12" fill="#ffffff" fill-opacity="1" stroke="none"/>
   <use id="Path-copy-1-14" stroke="#ffffff" stroke-opacity="1" stroke-linecap="round" fill="none" stroke-width="4" xlink:href="#stroke-path-18"/>
   
    <path id="Path-copy-2-12" d="M280.563 868.937 L376.023 773.477 377.437 772.063"/>
   
   <use id="Path-copy-2-13" xlink:href="#Path-copy-2-12" fill="#ffffff" fill-opacity="1" stroke="none"/>
   <use id="Path-copy-2-14" stroke="#ffffff" stroke-opacity="1" stroke-linecap="round" fill="none" stroke-width="4" xlink:href="#stroke-path-19"/>
   
    <path id="Path-15" d="M858 848 L858 983 858 985"/>
   
   <use id="Path-16" xlink:href="#Path-15" fill="#ffffff" fill-opacity="1" stroke="none"/>
   <use id="Path-17" stroke="#ffffff" stroke-opacity="1" stroke-linecap="round" fill="none" stroke-width="4" xlink:href="#stroke-path-20"/>
   
    <path id="Path-copy-15" d="M809.563 868.063 L905.023 963.523 906.437 964.937"/>
   
   <use id="Path-copy-16" xlink:href="#Path-copy-15" fill="#ffffff" fill-opacity="1" stroke="none"/>
   <use id="Path-copy-17" stroke="#ffffff" stroke-opacity="1" stroke-linecap="round" fill="none" stroke-width="4" xlink:href="#stroke-path-21"/>
   
    <path id="Path-copy-1-15" d="M789.5 916.5 L924.5 916.5 926.5 916.5"/>
   
   <use id="Path-copy-1-16" xlink:href="#Path-copy-1-15" fill="#ffffff" fill-opacity="1" stroke="none"/>
   <use id="Path-copy-1-17" stroke="#ffffff" stroke-opacity="1" stroke-linecap="round" fill="none" stroke-width="4" xlink:href="#stroke-path-22"/>
   
    <path id="Path-copy-2-15" d="M809.563 964.937 L905.023 869.477 906.437 868.063"/>
   
   <use id="Path-copy-2-16" xlink:href="#Path-copy-2-15" fill="#ffffff" fill-opacity="1" stroke="none"/>
   
   <use id="Path-copy-2-17" stroke="#ffffff" stroke-opacity="1" stroke-linecap="round" fill="none" stroke-width="4" xlink:href="#stroke-path-23"/>
  <path id="Cloud-copy" d="M974.822 291 C988.654 291 1001.568 288.854 1013.564 284.563 1025.561 280.271 1036.057 274.336 1045.054 266.756 1054.051 259.176 1061.059 250.37 1066.078 240.338 1071.097 230.306 1073.606 219.55 1073.606 208.069 1073.606 196.365 1071.281 185.358 1066.629 175.047 1061.977 164.736 1055.306 155.596 1046.615 147.626 1037.924 139.656 1027.58 133.386 1015.584 128.816 1015.584 110.201 1012.218 93.063 1005.485 77.402 998.753 61.741 989.297 48.142 977.117 36.605 964.937 25.069 950.738 16.151 934.518 9.854 918.299 3.556 900.764 0.407 881.913 0.407 865.265 0.407 850.24 2.831 836.836 7.68 823.432 12.529 811.558 18.994 801.214 27.075 790.871 35.156 782.027 44.102 774.682 53.911 763.421 50.901 752.19 50.427 740.989 52.489 729.789 54.552 719.598 58.676 710.417 64.862 701.237 71.049 693.831 78.851 688.2 88.27 682.569 97.689 679.631 108.25 679.386 119.955 665.554 121.961 653.589 126.754 643.49 134.334 633.391 141.914 625.618 151.444 620.171 162.925 614.724 174.406 612 186.946 612 200.545 612 212.806 614.754 224.399 620.263 235.322 625.771 246.246 633.513 255.86 643.49 264.164 653.466 272.469 665.126 279.017 678.468 283.81 691.811 288.604 706.316 291 721.985 291 Z" fill="#ffffff" fill-opacity="1" stroke="none"/>
  <path id="Cloud-copy-1" d="M575.822 348 C589.654 348 602.568 345.854 614.564 341.563 626.561 337.271 637.057 331.336 646.054 323.756 655.051 316.176 662.059 307.37 667.078 297.338 672.097 287.306 674.606 276.55 674.606 265.069 674.606 253.365 672.281 242.358 667.629 232.047 662.977 221.736 656.306 212.596 647.615 204.626 638.924 196.656 628.58 190.386 616.584 185.816 616.584 167.201 613.218 150.063 606.485 134.402 599.753 118.741 590.297 105.142 578.117 93.605 565.937 82.069 551.738 73.151 535.518 66.854 519.299 60.556 501.764 57.407 482.913 57.407 466.265 57.407 451.24 59.831 437.836 64.68 424.432 69.529 412.558 75.994 402.214 84.075 391.871 92.156 383.027 101.102 375.682 110.911 364.421 107.901 353.19 107.427 341.989 109.489 330.789 111.552 320.598 115.676 311.417 121.862 302.237 128.049 294.831 135.851 289.2 145.27 283.569 154.689 280.631 165.25 280.386 176.955 266.554 178.961 254.589 183.754 244.49 191.334 234.391 198.914 226.618 208.444 221.171 219.925 215.724 231.406 213 243.946 213 257.545 213 269.806 215.754 281.399 221.263 292.322 226.771 303.246 234.513 312.86 244.49 321.164 254.466 329.469 266.126 336.017 279.468 340.81 292.811 345.604 307.316 348 322.985 348 Z" fill="#ffffff" fill-opacity="1" stroke="none"/>
</svg>
